<?xml version="1.0" encoding="UTF-8"?>
<svg width="83px" height="15px" viewBox="0 0 83 15" version="1.1" xmlns="http://www.w3.org/2000/svg" xmlns:xlink="http://www.w3.org/1999/xlink">
    <!-- Generator: Sketch 43.2 (39069) - http://www.bohemiancoding.com/sketch -->
    <title>Page 1</title>
    <desc>Created with Sketch.</desc>
    <defs></defs>
    <g id="mobile" stroke="none" stroke-width="1" fill="none" fill-rule="evenodd">
        <g id="mobile-22-customer-chat" transform="translate(-146.000000, -22.000000)" fill="#21303D">
            <g id="header" transform="translate(-14.000000, -14.000000)">
                <g id="Page-1" transform="translate(160.000000, 36.000000)">
                    <path d="M10.1084166,4.71153947 C9.92196161,4.68509211 9.70836445,4.65825 9.38855877,4.65825 C7.2301654,4.65825 6.51109431,6.23561842 6.51109431,8.34785526 L6.51109431,14.5511447 L2.06135024,14.5511447 L2.06135024,2.36482895 L6.40449242,0.513907895 L6.40449242,2.38535526 C7.07085261,1.02153947 8.37603744,0.16575 10.1084166,0.16575 L10.1084166,4.71153947 Z" id="Fill-1"></path>
                    <path d="M19.8346398,0.165671053 C24.3374882,0.165671053 27.5084028,3.26790789 27.5084028,7.51922368 C27.5084028,11.7436974 24.2576351,14.8984342 19.8346398,14.8984342 C15.3848957,14.8984342 12.2403365,11.7973816 12.2403365,7.57251316 C12.2403365,3.32119737 15.5174597,0.165671053 19.8346398,0.165671053 M19.8346398,10.9684342 C21.6728341,10.9684342 23.0586588,9.52448684 23.0586588,7.51922368 C23.0586588,5.46067105 21.6464787,4.09646053 19.8346398,4.09646053 C17.9956588,4.09646053 16.6900806,5.51356579 16.6900806,7.57251316 C16.6900806,9.60461842 18.0228009,10.9684342 19.8346398,10.9684342" id="Fill-3"></path>
                    <path d="M42.9631995,14.5513026 L38.5134555,14.5513026 L38.5134555,6.18209211 C38.5134555,4.92525 37.9009863,4.17682895 36.8349673,4.17682895 C35.7956972,4.17682895 35.1297303,4.89880263 35.1297303,6.18209211 L35.1297303,14.5513026 L30.6799863,14.5513026 L30.6799863,2.47590789 L35.0231284,0.513671053 L35.0231284,1.95761842 C35.5026403,1.10182895 36.6217635,0.165513158 38.4867066,0.165513158 C40.1388393,0.165513158 41.3645645,0.861039474 42.1107777,2.01090789 C42.9631995,0.914723684 44.2687777,0.165513158 46.0806166,0.165513158 C49.3050289,0.165513158 50.8238109,2.25130263 50.8238109,5.21932895 L50.8238109,14.5513026 L46.3736735,14.5513026 L46.3736735,6.18209211 C46.3736735,4.92525 45.7344555,4.17682895 44.6684365,4.17682895 C43.6295597,4.17682895 42.9631995,4.97932895 42.9631995,6.18209211 L42.9631995,14.5513026 Z" id="Fill-5"></path>
                    <path d="M59.2981896,5.54060526 C60.5239147,5.54060526 61.4833318,5.83468421 61.9888057,6.04863158 L61.9888057,5.54060526 C61.9888057,4.68521053 61.2968768,4.01652632 59.8575545,4.01652632 C58.6318294,4.01652632 57.4324597,4.36389474 56.3404787,4.89876316 L54.6879526,1.90389474 C56.1807725,0.914684211 58.0724645,0.165868421 60.3901706,0.165868421 C65.213218,0.165868421 66.4385498,2.65271053 66.4385498,5.86152632 L66.4385498,14.5512632 L62.4687109,14.5512632 L62.2291517,13.776 C61.5092938,14.4979737 60.4967725,14.8986316 59.0578436,14.8986316 C56.3133365,14.8986316 53.8622796,13.2415263 53.8622796,10.1929737 C53.8622796,7.38521053 55.9943175,5.54060526 59.2981896,5.54060526 M60.2037156,11.4762632 C61.2697346,11.4762632 62.0686588,10.9686316 62.0686588,10.0323158 C62.0686588,9.07034211 61.2429858,8.53507895 60.1769668,8.53507895 C59.1117346,8.53507895 58.3120237,9.12323684 58.3120237,10.0323158 C58.3120237,10.9686316 59.1644455,11.4762632 60.2037156,11.4762632" id="Fill-7"></path>
                    <path d="M78.376782,6.18213158 C78.376782,4.872 77.6038199,4.17647368 76.5385877,4.17647368 C75.3120758,4.17647368 74.6201469,5.0595 74.6201469,6.18213158 L74.6201469,14.5513421 L70.1704028,14.5513421 L70.1704028,2.29002632 L74.513545,0.513710526 L74.513545,1.95765789 C75.0457678,1.12831579 76.2714929,0.165552632 78.0306209,0.165552632 C82.4005118,0.165552632 82.8265261,3.90923684 82.8265261,6.77068421 L82.8265261,14.5513421 L78.376782,14.5513421 L78.376782,6.18213158 Z" id="Fill-9"></path>
                    <path d="M6.47915308,2.83882895 L6.47915308,0.48225 L5.86825735,0.48225 L0.290736019,2.27396053 L0.290736019,2.83882895 C0.290736019,2.83882895 2.49200616,3.23080263 2.49200616,5.61185526 C2.49200616,7.99369737 6.47915308,5.61185526 6.47915308,5.61185526 L6.47915308,2.83882895 Z" id="Fill-11"></path>
                </g>
            </g>
        </g>
    </g>
</svg>